<?xml version="1.0" encoding="utf-8"?>
<!-- Generator: Adobe Illustrator 16.0.0, SVG Export Plug-In . SVG Version: 6.00 Build 0)  -->
<!DOCTYPE svg PUBLIC "-//W3C//DTD SVG 1.1//EN" "http://www.w3.org/Graphics/SVG/1.1/DTD/svg11.dtd">
<svg version="1.1" id="Layer_1" xmlns="http://www.w3.org/2000/svg" xmlns:xlink="http://www.w3.org/1999/xlink" x="0px" y="0px"
	 width="419px" height="113.5px" viewBox="0 0 419 113.5" enable-background="new 0 0 419 113.5" xml:space="preserve">
<path fill="#FFFFFF" d="M19.77,62.79c0,4.58-3.61,7.34-9.67,7.34c-2.93,0-5.62-0.8-7.95-1.97v-3.85c2.13,1.279,4.74,2.25,7.63,2.25
	c2.85,0,6.26-0.641,6.26-3.771c0-6.94-14.25-3.69-14.25-12.44c0-3.69,2.45-7.62,9.35-7.62c2.85,0,5.18,0.8,6.9,1.69v3.69
	c-1.4-0.84-3.61-1.77-6.46-1.77c-2.77,0-6.06,0.68-6.06,4.01C5.52,55,19.77,53.32,19.77,62.79z"/>
<path fill="#FFFFFF" d="M28.88,46.7h-3.93v-3.89h3.93V46.7z M25.07,49.79h3.69v20.021h-3.69V49.79z"/>
<path fill="#FFFFFF" d="M50.63,55.77v14.89c0,3.21-1.52,7.02-8.79,7.02c-2.17,0-4.13-0.32-5.94-0.84v-3.49
	c1.69,0.521,3.57,0.881,5.62,0.881c5.46,0,5.46-2.25,5.46-3.57v-1.77c-1.32,0.359-2.69,0.56-4.05,0.56c-5.74,0-8.91-3.49-8.91-9.79
	c0-5.82,2.49-10.23,8.59-10.23C47.38,49.43,50.63,51.63,50.63,55.77z M46.98,55.53c0-0.72,0-2.81-4.37-2.81
	c-2.29,0-4.9,0.76-4.9,6.94c0,5.699,2.49,6.46,5.22,6.46c1.4,0,2.77-0.24,4.05-0.761V55.53L46.98,55.53z"/>
<path fill="#FFFFFF" d="M56.05,69.811V51.51c0.16-0.08,3.85-2.09,8.55-2.09c5.06,0,8.07,2.81,8.07,7.46V69.8h-3.69V56.65
	c0-1.89-0.52-3.81-4.53-3.81c-1.81,0-3.45,0.32-4.69,0.72v16.25h-3.69l0,0H56.05z"/>
<path fill="#FFFFFF" d="M94.06,57.85v5.78c0,1.521-0.56,6.5-8.27,6.5c-7.87,0-8.47-5.06-8.47-6.62c0-3.97,3.53-6.34,9.43-6.34
	c1.28,0,2.49,0.08,3.65,0.24c-0.16-3.29-1.6-4.74-5.54-4.74c-2.29,0-4.25,0.56-5.54,1v-3.13c1.49-0.56,3.49-1.08,6.06-1.08
	C90.97,49.47,94.06,52.44,94.06,57.85z M90.41,60.34c-0.96-0.16-2.17-0.24-3.49-0.24c-1.73,0-5.94,0.521-5.94,3.371
	c0,2.289,1.65,3.409,4.82,3.409c3.05,0,4.62-1.08,4.62-3.29L90.41,60.34L90.41,60.34z"/>
<path fill="#FFFFFF" d="M103.33,42.16v27.65h-3.69V42.16H103.33z"/>
<g enable-background="new    ">
	<path fill="#393A3E" d="M113.32,45.84v8.34h12.36v3.57h-12.36v8.34h14.04v3.57H109.5v-27.4h17.86v3.57h-14.04V45.84z"/>
	<path fill="#393A3E" d="M132.5,69.65V50.93c0.16-0.08,3.94-2.13,8.75-2.13c5.17,0,8.25,2.88,8.25,7.64v13.21h-3.78V56.18
		c0-1.93-0.53-3.9-4.64-3.9c-1.85,0-3.53,0.33-4.8,0.74v16.63H132.5z"/>
	<path fill="#393A3E" d="M172.91,49.16l-7.88,20.49h-3.86l-7.84-20.49h4.02l5.75,15.97l5.79-15.97H172.91z"/>
	<path fill="#393A3E" d="M181.53,46h-4.02v-3.98h4.02V46z M177.63,49.16h3.78v20.49h-3.78V49.16z"/>
	<path fill="#393A3E" d="M191.31,69.65h-3.78V51.21c0.21-0.08,4.48-2.05,9.98-2.05v3.45c-2.42,0.04-4.6,0.45-6.2,0.86V69.65
		L191.31,69.65z"/>
	<path fill="#393A3E" d="M219.311,59.43c0,8.711-5.261,10.551-9.65,10.551c-4.39,0-9.65-1.851-9.65-10.551
		c0-8.7,5.26-10.55,9.65-10.55C214.061,48.87,219.311,50.72,219.311,59.43z M215.54,59.43c0-6.36-2.79-7.229-5.87-7.229
		s-5.87,0.86-5.87,7.229c0,6.37,2.79,7.23,5.87,7.23C212.74,66.65,215.54,65.79,215.54,59.43z"/>
	<path fill="#393A3E" d="M224.12,69.65V50.93c0.159-0.08,3.94-2.13,8.75-2.13c5.17,0,8.25,2.88,8.25,7.64v13.21h-3.78V56.18
		c0-1.93-0.529-3.9-4.64-3.9c-1.851,0-3.53,0.33-4.8,0.74v16.63H224.12z"/>
	<path fill="#393A3E" d="M277.63,56.47v13.18h-3.739V56.22c0-1.93-0.531-3.94-4.23-3.94c-2.34,0-4.311,0.66-5.5,1.15
		c0.33,0.9,0.49,1.93,0.49,3.04v13.18h-3.78V56.26c0-1.93-0.53-3.9-4.72-3.9c-1.68,0-3.24,0.29-4.48,0.62v16.67h-3.779V50.84
		c0.739-0.37,4.189-2.05,8.539-2.05c2.26,0,4.11,0.57,5.461,1.56c1.52-0.62,4.27-1.56,7.52-1.56
		C274.59,48.79,277.63,51.67,277.63,56.47z"/>
	<path fill="#393A3E" d="M299.48,65.26v3.41c-1.931,0.82-4.351,1.359-7.271,1.359c-4.31,0-9.44-1.809-9.44-10.35
		c0-2.67,0-10.84,9.07-10.84c5.5,0,9.03,3.9,9.03,9.9c0,0.99-0.04,1.93-0.12,2.83h-14.12c0.57,4.27,3.08,5.22,5.79,5.22
		C295.45,66.779,297.75,66.16,299.48,65.26z M286.58,58.15h10.51c-0.199-2.38-1.189-5.95-5.26-5.95
		C288.391,52.2,286.91,53.76,286.58,58.15z"/>
	<path fill="#393A3E" d="M305.84,69.65V50.93c0.16-0.08,3.94-2.13,8.75-2.13c5.17,0,8.25,2.88,8.25,7.64v13.21h-3.78V56.18
		c0-1.93-0.529-3.9-4.64-3.9c-1.85,0-3.53,0.33-4.8,0.74v16.63H305.84z"/>
	<path fill="#393A3E" d="M333.81,52.32V64.23c0,1.77,1.15,2.42,3.08,2.42c1.07,0,1.851-0.291,2.38-0.61v3.37
		c-0.819,0.33-1.77,0.57-2.92,0.57c-1.31,0-6.279-0.451-6.279-5.99V52.32h-3.57v-3.16h3.57v-6.12h3.729v6.12h5.46v3.16H333.81z"/>
	<path fill="#393A3E" d="M360.21,57.41v5.91c0,1.56-0.57,6.65-8.46,6.65c-8.05,0-8.66-5.171-8.66-6.771c0-4.06,3.61-6.49,9.65-6.49
		c1.31,0,2.55,0.08,3.74,0.25c-0.16-3.37-1.641-4.84-5.671-4.84c-2.34,0-4.35,0.57-5.659,1.03v-3.2c1.52-0.57,3.569-1.11,6.199-1.11
		C357.05,48.83,360.21,51.87,360.21,57.41z M356.48,59.96c-0.98-0.16-2.221-0.25-3.57-0.25c-1.771,0-6.08,0.53-6.08,3.45
		c0,2.34,1.68,3.49,4.93,3.49c3.12,0,4.721-1.11,4.721-3.371V59.95l0,0V59.96z"/>
</g>
<path fill="none" stroke="#393A3E" stroke-width="3.7" stroke-miterlimit="10" d="M365.31,44.16c2.471,4.28,3.891,9.25,3.891,14.55
	c0,4.79-1.15,9.31-3.2,13.29"/>
<path fill="none" stroke="#FFFFFF" stroke-width="8.95" stroke-miterlimit="10" d="M376.46,22.83c5.98,10.36,9.4,22.38,9.4,35.199
	c0,11.58-2.79,22.511-7.74,32.15"/>
<path fill="none" stroke="#FFFFFF" stroke-width="13.93" stroke-miterlimit="10" d="M396.02,4.08
	c9.311,16.13,14.631,34.84,14.631,54.8c0,18.03-4.351,35.04-12.051,50.05"/>
</svg>
