<svg xmlns="http://www.w3.org/2000/svg" version="1.1" x="0" y="0" width="280" height="280" viewBox="0" enable-background="new 0 0 280 280" xml:space="preserve"><g display="none"><path display="inline" fill="#393A3E" d="M228.923 35.611h-31.48c-1.722-6.66-7.726-11.598-14.914-11.598h-23.59c0.258-1.25 0.392-2.541 0.392-3.866 0-10.659-8.671-19.331-19.33-19.331 -10.659 0-19.331 8.672-19.331 19.331 0 1.325 0.136 2.616 0.395 3.866H97.472c-7.194 0-13.192 4.938-14.915 11.598H51.077c-6.408 0-11.599 5.191-11.599 11.599v220.375c0 6.402 5.191 11.599 11.599 11.599h177.846c6.408 0 11.599-5.196 11.599-11.599V47.21C240.521 40.803 235.331 35.611 228.923 35.611zM128.402 20.147c0-6.396 5.202-11.599 11.598-11.599 6.396 0 11.599 5.203 11.599 11.599 0 1.363-0.279 2.65-0.718 3.866 -1.601 4.489-5.848 7.732-10.881 7.732s-9.282-3.243-10.883-7.732C128.679 22.797 128.402 21.51 128.402 20.147zM225.057 255.985H54.943V51.077h27.063v11.599h115.986V51.077h27.063V255.985z"/><polygon display="inline" fill="#393A3E" points="97.472"/><rect x="147.732" y="97.471" display="inline" fill="#393A3E" width="65.727" height="7.733"/><rect x="147.732" y="120.668" display="inline" fill="#393A3E" width="65.727" height="7.733"/><rect x="147.732" y="143.866" display="inline" fill="#393A3E" width="65.727" height="7.732"/><rect x="147.732" y="167.062" display="inline" fill="#393A3E" width="65.727" height="7.732"/><rect x="147.732" y="190.261" display="inline" fill="#393A3E" width="65.727" height="7.732"/><rect x="147.732" y="213.457" display="inline" fill="#393A3E" width="65.727" height="7.732"/></g><g display="none"><path display="inline" fill="#393A3E" d="M278.406 97.167c-0.702-11.535-4.188-14.035-17.02-22.71 1.43-2.889 2.238-6.1 2.238-9.485 0-12.62-11.1-22.845-24.782-22.845 -9.217 0-17.248 4.635-21.522 11.52 -2.619-1.688-4.427-3.351-4.994-4.985 -2.152-7.31-9.564-11.979-17.648-11.936 -3.205-8.621-11.744-14.789-21.787-14.789 -8.23 0-15.456 4.158-19.557 10.407 -2.503 0.591-5.125 1.342-7.604 2.288 -11.003-1.722-17.829-1.584-21.983-1.785 -8.435 5.976-34.444 30.578-34.444 30.578S78.404 76.778 79.106 80.295c-6.319 2.813-64.316 44.994-69.945 52.021 0 0-20.033 14.406 4.927 40.073 24.954 25.656 48.856 29.167 57.996 18.277 9.134-10.896 45.688-63.97 46.042-71.708 5.629-5.271 9.14-10.194 9.14-10.194l20.737 2.111 6.326-5.974c0 0 4.924 6.327 13.713 4.221 6.68 5.974 16.515 15.114 16.515 15.114l21.093 11.251c0 0-52.022 55.885-56.94 67.48 -4.921 11.601 3.159 34.451 33.388 47.8 30.229 13.356 44.641 7.386 51.609-9.832 0 0 19.743-51.32 23.965-76.981C269.266 136.886 279.108 108.764 278.406 97.167zM66.987 175.112c-21.156 0-38.846-15.829-43.343-37.028 7.418 1.471 16.302 5.723 24.697 12.319 9.903 7.778 16.815 16.998 19.241 24.697C67.384 175.101 67.189 175.112 66.987 175.112zM209.93 233.536c-20.194 0-37.231-14.421-42.656-34.176 8.84-1.019 20.473 1.664 31.693 8.014 11.735 6.649 20.256 15.746 23.647 24.175C218.597 232.838 214.335 233.536 209.93 233.536z"/></g><g display="none"><path display="inline" fill="#393A3E" d="M126.923 193.318l-55.84-60.658c-0.784-0.842-1.969-1.133-3.026-0.741 -1.078 0.378-1.812 1.362-1.875 2.496l-3.319 57.303c-0.072 1.348 0.801 2.525 2.04 2.877 0.198 0.062 0.411 0.1 0.621 0.1l59.158 3.362c1.145 0.064 2.219-0.568 2.714-1.611C127.888 195.4 127.699 194.167 126.923 193.318zM102.121 191.848c-0.432 1.5-1.998 2.361-3.497 1.939 -1.497-0.434-2.367-1.992-1.932-3.494l1.638-5.698 -12.811-3.666 -1.637 5.703c-0.435 1.499-1.995 2.369-3.489 1.936 -1.5-0.425-2.367-1.986-1.935-3.485l1.629-5.706 -9.131-2.61c-1.5-0.43-2.366-1.991-1.935-3.491 0.427-1.499 1.989-2.366 3.489-1.937l9.136 2.607 3.592-12.536c0.432-1.498 1.998-2.364 3.491-1.939 1.497 0.434 2.367 1.998 1.938 3.497l-3.598 12.536 12.813 3.665 0.596-2.077c0.429-1.494 1.989-2.367 3.492-1.937 1.5 0.425 2.364 1.989 1.937 3.492L102.121 191.848z"/><polygon display="inline" fill="#393A3E" points="160.088"/><rect x="150.467" y="86.125" transform="matrix(-0.9614 -0.2751 0.2751 -0.9614 282.6193 225.6603)" display="inline" fill="#393A3E" width="13.332" height="13.777"/><polygon display="inline" fill="#393A3E" points="154.733"/><rect x="137.581" y="62.254" transform="matrix(-0.9614 -0.2751 0.2751 -0.9614 263.9024 175.2875)" display="inline" fill="#393A3E" width="13.326" height="13.764"/><rect x="132.229" y="80.913" transform="matrix(-0.9614 -0.275 0.275 -0.9614 248.2713 210.4088)" display="inline" fill="#393A3E" width="13.315" height="13.774"/><polygon display="inline" fill="#393A3E" points="170.796"/><polygon display="inline" fill="#393A3E" points="189.04"/><rect x="168.713" y="91.344" transform="matrix(-0.9615 -0.2748 0.2748 -0.9615 317.0172 240.865)" display="inline" fill="#393A3E" width="13.33" height="13.772"/><polygon display="inline" fill="#393A3E" points="165.513"/><polygon display="inline" fill="#393A3E" points="172.976"/><polygon display="inline" fill="#393A3E" points="128.959"/><rect x="82.866" y="46.596" transform="matrix(-0.9614 -0.275 0.275 -0.9614 160.8979 129.5167)" display="inline" fill="#393A3E" width="13.323" height="13.768"/><rect x="64.625" y="41.39" transform="matrix(-0.9615 -0.2748 0.2748 -0.9615 126.5668 114.285)" display="inline" fill="#393A3E" width="13.331" height="13.771"/><path display="inline" fill="#393A3E" d="M251.453 30.771c-20.27-5.795-32.402-2.32-32.917-2.169 -0.92 0.278-1.641 1.002-1.904 1.935l-9.72 33.866L56.546 21.407c-1.497-0.429-3.056 0.441-3.487 1.941l-7.722 26.923 -8.266-8.978c-0.774-0.838-1.971-1.137-3.03-0.738 -1.07 0.375-1.802 1.362-1.869 2.495l-3.856 66.549L2.305 200.281c-0.426 1.499 0.441 3.061 1.938 3.494l18.322 5.237 -1.027 17.759c-0.078 1.345 0.799 2.522 2.029 2.879 0.201 0.059 0.413 0.091 0.626 0.101l88.449 5.017 74.207 21.223c32.255 9.22 37.001-7.317 39.543-16.214l44.241-154.21 6.521-22.726C280.368 51.61 271.635 36.547 251.453 30.771zM62.132 35.549c0.429-1.497 1.992-2.367 3.491-1.938L193.31 70.12c1.494 0.435 2.367 1.998 1.934 3.494l-28.488 99.33c-0.434 1.5-1.998 2.373-3.498 1.941 -1.493-0.436-2.36-1.997-1.933-3.494l6.291-21.944 -12.806-3.665 -3.188 11.099c-0.433 1.5-1.991 2.372-3.491 1.939 -1.499-0.428-2.366-1.992-1.939-3.491l3.188-11.102 -15.528-4.437c-1.5-0.429-2.366-1.989-1.935-3.492l4.575-15.95 -12.813-3.663 -2.229 7.769c-0.432 1.5-1.998 2.37-3.497 1.941 -1.497-0.429-2.361-1.989-1.932-3.489l2.226-7.774 -15.52-4.439c-1.5-0.429-2.367-1.995-1.938-3.488l4.575-15.951 -12.818-3.669 -1.439 5.023c-0.428 1.5-1.991 2.373-3.49 1.943 -1.504-0.429-2.367-1.995-1.935-3.494l6.792-23.698 -12.805-3.663 -3.695 12.88c-0.429 1.5-1.992 2.373-3.494 1.944 -1.5-0.435-2.367-1.998-1.936-3.495l3.69-12.882 -14.975-4.284c-0.201-0.012-0.387 0.009-0.581-0.045 -1.5-0.428-2.368-1.995-1.94-3.495L62.132 35.549zM22.528 194.086c-0.423 1.493-1.989 2.36-3.489 1.937 -1.5-0.432-2.366-1.995-1.938-3.498l3.077-10.718c0.429-1.493 1.995-2.366 3.488-1.939 1.503 0.425 2.367 1.986 1.938 3.492L22.528 194.086zM27.339 224.268l10.089-174.24 21.368 23.217 -6.313 5.638c-1.168 1.04-1.269 2.825-0.23 3.988 0.368 0.42 0.827 0.696 1.326 0.835 0.902 0.258 1.913 0.063 2.659-0.606l6.387-5.698 7.23 7.851 -6.352 5.669c-1.17 1.042-1.27 2.826-0.231 3.987 0.372 0.42 0.83 0.696 1.325 0.836 0.898 0.258 1.917 0.06 2.661-0.604l6.422-5.732 7.233 7.862 -6.385 5.693c-1.167 1.042-1.265 2.828-0.231 3.992 0.375 0.413 0.835 0.69 1.327 0.833 0.899 0.258 1.913 0.063 2.663-0.609l6.446-5.755 7.235 7.855 -6.415 5.727c-1.17 1.034-1.27 2.825-0.229 3.985 0.366 0.42 0.828 0.692 1.322 0.837 0.902 0.258 1.909 0.063 2.661-0.609l6.481-5.789 7.235 7.862 -6.452 5.75c-1.161 1.035-1.265 2.825-0.231 3.989 0.369 0.415 0.835 0.69 1.325 0.828 0.904 0.255 1.914 0.062 2.664-0.602l6.511-5.817 7.235 7.862 -6.482 5.781c-1.166 1.041-1.263 2.825-0.227 3.992 0.372 0.409 0.83 0.686 1.323 0.829 0.902 0.257 1.915 0.061 2.659-0.606l6.545-5.841 7.235 7.851 -6.508 5.813c-1.165 1.037-1.267 2.82-0.231 3.987 0.369 0.419 0.833 0.688 1.325 0.831 0.904 0.258 1.914 0.064 2.661-0.603l6.58-5.87 7.232 7.855 -6.536 5.833c-1.169 1.039-1.266 2.825-0.23 3.985 0.368 0.413 0.833 0.691 1.319 0.838 0.902 0.252 1.916 0.059 2.663-0.615l6.605-5.888 7.227 7.856 -6.569 5.857c-1.165 1.044-1.273 2.827-0.231 3.989 0.369 0.422 0.826 0.698 1.324 0.836 0.902 0.255 1.909 0.062 2.664-0.607l6.638-5.928 7.229 7.856 -6.596 5.893c-1.178 1.042-1.266 2.824-0.229 3.983 0.363 0.42 0.831 0.691 1.317 0.839 0.909 0.263 1.922 0.063 2.665-0.61l6.668-5.948 7.675 8.333 -3.915 13.65c-0.286 0.989-0.011 2.053 0.721 2.773 0.728 0.729 1.787 0.998 2.783 0.711 0.076-0.018 5.794-1.534 15.688-0.532l22.144 24.048L27.339 224.268zM224.64 225.45c-3.726-7.375-11.745-14.258-23.937-17.744 -13.088-3.737-22.789-3.62-28.149-3.023l49.04-170.979c3.579-0.632 13.608-1.7 28.301 2.496 18.501 5.294 23.907 17.858 21.828 25.087L224.64 225.45z"/><rect x="95.744" y="70.483" transform="matrix(-0.9615 -0.2749 0.2749 -0.9615 179.603 179.9123)" display="inline" fill="#393A3E" width="13.327" height="13.778"/><polygon display="inline" fill="#393A3E" points="116.073"/><polygon display="inline" fill="#393A3E" points="134.313"/><polygon display="inline" fill="#393A3E" points="141.841"/><rect x="108.634" y="94.378" transform="matrix(-0.9615 -0.2749 0.2749 -0.9615 198.3206 230.3125)" display="inline" fill="#393A3E" width="13.327" height="13.765"/></g><g display="none"><polygon display="inline" fill="#393A3E" points="34.205"/><path display="inline" fill="#393A3E" d="M261.983 131.663l-28.952-1.594L226.31 97.65l-0.273-0.512c-20.34-37.541-61.766-62.771-103.076-62.771 -63.124 0-114.492 48.404-114.492 107.896 0 6.621 1.188 13.03 2.345 19.227 1.227 6.579 2.388 12.813 1.865 18.291l-11.03 13.126 13.06 17.091 25.249-10.539 140.639-31.412 87.216-9.69 10.54-16.471L261.983 131.663zM127.255 58.292c-40.138 0-76.386 17.96-98.354 46.101 16.445-33.783 52.759-57.309 94.806-57.309 30.625 0 61.336 15.259 81.708 39.409C183.181 68.816 154.991 58.292 127.255 58.292z"/></g><path fill="#393A3E" d="M180.856 2.896c-53.174 0.006-96.25 42.835-96.261 95.693 0 15.243 7.439 35.035 7.439 35.035 1.506 4.001 3.903 10.573 5.327 14.604 0 0 1.562 4.418 1.562 10.364 0 7.116-14.015 21.103-21.17 21.103 -2.332 0-2.332 0-2.332 0 -2.176-1.014-5.968 0.145-8.426 2.573 -2.457 2.427-6.724 7.083-9.48 10.349l-6.397 6.365c-3.282 2.739-16.674 15.673-19.707 18.687l-6.718 6.679c-2.764 2.746-6.095 7.739-7.825 11.626 -2.826-2.412-7.065-2.508-9.979-0.003l-1.272 1.089c-3.245 2.788-3.653 7.746-0.905 11.023l22.023 26.275c2.746 3.277 7.646 3.682 10.891 0.894l1.277-1.095c3.245-2.789 3.649-7.75 0.903-11.026l-0.289-0.344c1.319-0.352 2.129-0.651 2.129-0.651 3.999-1.523 9.75-5.225 12.783-8.24l14.939-14.9c3.03-3.018 7.768-8.157 10.527-11.422l6.417-6.339c3.274-2.75 7.963-6.986 10.419-9.416 2.458-2.433 3.632-6.186 2.611-8.349 0 0 0 0 0-2.322 0-7.108 14.023-21.1 21.178-21.1 5.983 0 10.426 1.549 10.426 1.549 4.038 1.409 10.617 3.774 14.626 5.261 0 0 19.949 7.416 35.283 7.416 53.164-0.007 96.245-42.826 96.251-95.684C277.102 45.731 234.021 2.902 180.856 2.896zM230.926 145.964c-12.565 12.445-29.735 20.109-48.866 20.118 -19.136-0.009-36.301-7.673-48.867-20.118 -12.515-12.483-20.225-29.556-20.237-48.579 0.016-19.019 7.722-36.088 20.237-48.572 12.566-12.461 29.731-20.115 48.867-20.125 19.138 0.01 36.301 7.664 48.866 20.122 12.526 12.487 20.222 29.549 20.238 48.575C251.147 116.408 243.452 133.48 230.926 145.964zM223.604 65.272c-0.531 1.337-1.771 2.136-3.3 2.136 -1.985 0-4.318-1.258-6.758-3.633 -0.016-0.003-8.938-7.305-27.974-7.951 -30.721-0.991-47.392 23.145-47.392 45.833 0 11.531 2.599 20.673 4.235 23.722 3.005 5.593 2.577 6.3 2.235 6.871l-0.399 0.668 -0.876 0.055c-0.01 0-0.017 0-0.026 0 -0.74 0-1.474-0.065-5.381-5.991 -5.655-8.577-8.455-18.145-8.552-29.24 -0.121-13.188 5.331-26.021 15.353-36.134 11.319-11.42 26.901-17.75 42.578-17.118 20.806 0.815 31.711 10.902 32.164 11.333C223.03 59.148 224.603 62.768 223.604 65.272z"/></svg>