<svg xmlns="http://www.w3.org/2000/svg" version="1.1" x="0" y="0" width="280" height="280" viewBox="0" enable-background="new 0 0 280 280" xml:space="preserve"><g display="none"><path display="inline" fill="#393A3E" d="M228.9 35.6h-31.5c-1.7-6.7-7.7-11.6-14.9-11.6h-23.6c0.3-1.2 0.4-2.5 0.4-3.9 0-10.7-8.7-19.3-19.3-19.3 -10.7 0-19.3 8.7-19.3 19.3 0 1.3 0.1 2.6 0.4 3.9H97.5c-7.2 0-13.2 4.9-14.9 11.6H51.1c-6.4 0-11.6 5.2-11.6 11.6v220.4c0 6.4 5.2 11.6 11.6 11.6h177.8c6.4 0 11.6-5.2 11.6-11.6V47.2C240.5 40.8 235.3 35.6 228.9 35.6zM128.4 20.1c0-6.4 5.2-11.6 11.6-11.6 6.4 0 11.6 5.2 11.6 11.6 0 1.4-0.3 2.7-0.7 3.9 -1.6 4.5-5.8 7.7-10.9 7.7s-9.3-3.2-10.9-7.7C128.7 22.8 128.4 21.5 128.4 20.1zM225.1 256H54.9V51.1h27.1v11.6h116V51.1h27.1V256z"/><polygon display="inline" fill="#393A3E" points="97.5"/><rect x="147.7" y="97.5" display="inline" fill="#393A3E" width="65.7" height="7.7"/><rect x="147.7" y="120.7" display="inline" fill="#393A3E" width="65.7" height="7.7"/><rect x="147.7" y="143.9" display="inline" fill="#393A3E" width="65.7" height="7.7"/><rect x="147.7" y="167.1" display="inline" fill="#393A3E" width="65.7" height="7.7"/><rect x="147.7" y="190.3" display="inline" fill="#393A3E" width="65.7" height="7.7"/><rect x="147.7" y="213.5" display="inline" fill="#393A3E" width="65.7" height="7.7"/></g><path fill="#393A3E" d="M278.4 97.2c-0.7-11.5-4.2-14-17-22.7 1.4-2.9 2.2-6.1 2.2-9.5 0-12.6-11.1-22.8-24.8-22.8 -9.2 0-17.2 4.6-21.5 11.5 -2.6-1.7-4.4-3.4-5-5 -2.2-7.3-9.6-12-17.6-11.9 -3.2-8.6-11.7-14.8-21.8-14.8 -8.2 0-15.5 4.2-19.6 10.4 -2.5 0.6-5.1 1.3-7.6 2.3 -11-1.7-17.8-1.6-22-1.8 -8.4 6-34.4 30.6-34.4 30.6S78.4 76.8 79.1 80.3c-6.3 2.8-64.3 45-69.9 52 0 0-20 14.4 4.9 40.1 25 25.7 48.9 29.2 58 18.3 9.1-10.9 45.7-64 46-71.7 5.6-5.3 9.1-10.2 9.1-10.2l20.7 2.1 6.3-6c0 0 4.9 6.3 13.7 4.2 6.7 6 16.5 15.1 16.5 15.1l21.1 11.3c0 0-52 55.9-56.9 67.5 -4.9 11.6 3.2 34.5 33.4 47.8 30.2 13.4 44.6 7.4 51.6-9.8 0 0 19.7-51.3 24-77C269.3 136.9 279.1 108.8 278.4 97.2zM67 175.1c-21.2 0-38.8-15.8-43.3-37 7.4 1.5 16.3 5.7 24.7 12.3 9.9 7.8 16.8 17 19.2 24.7C67.4 175.1 67.2 175.1 67 175.1zM209.9 233.5c-20.2 0-37.2-14.4-42.7-34.2 8.8-1 20.5 1.7 31.7 8 11.7 6.6 20.3 15.7 23.6 24.2C218.6 232.8 214.3 233.5 209.9 233.5z"/><g display="none"><path display="inline" fill="#393A3E" d="M126.9 193.3l-55.8-60.7c-0.8-0.8-2-1.1-3-0.7 -1.1 0.4-1.8 1.4-1.9 2.5l-3.3 57.3c-0.1 1.3 0.8 2.5 2 2.9 0.2 0.1 0.4 0.1 0.6 0.1l59.2 3.4c1.1 0.1 2.2-0.6 2.7-1.6C127.9 195.4 127.7 194.2 126.9 193.3zM102.1 191.8c-0.4 1.5-2 2.4-3.5 1.9 -1.5-0.4-2.4-2-1.9-3.5l1.6-5.7 -12.8-3.7 -1.6 5.7c-0.4 1.5-2 2.4-3.5 1.9 -1.5-0.4-2.4-2-1.9-3.5l1.6-5.7 -9.1-2.6c-1.5-0.4-2.4-2-1.9-3.5 0.4-1.5 2-2.4 3.5-1.9l9.1 2.6 3.6-12.5c0.4-1.5 2-2.4 3.5-1.9 1.5 0.4 2.4 2 1.9 3.5l-3.6 12.5 12.8 3.7 0.6-2.1c0.4-1.5 2-2.4 3.5-1.9 1.5 0.4 2.4 2 1.9 3.5L102.1 191.8z"/><polygon display="inline" fill="#393A3E" points="160.1"/><rect x="150.5" y="86.1" transform="matrix(-0.9614 -0.2751 0.2751 -0.9614 282.6193 225.6603)" display="inline" fill="#393A3E" width="13.3" height="13.8"/><polygon display="inline" fill="#393A3E" points="154.7"/><rect x="137.6" y="62.3" transform="matrix(-0.9614 -0.2751 0.2751 -0.9614 263.9024 175.2875)" display="inline" fill="#393A3E" width="13.3" height="13.8"/><rect x="132.2" y="80.9" transform="matrix(-0.9614 -0.275 0.275 -0.9614 248.2713 210.4088)" display="inline" fill="#393A3E" width="13.3" height="13.8"/><polygon display="inline" fill="#393A3E" points="170.8"/><polygon display="inline" fill="#393A3E" points="189"/><rect x="168.7" y="91.3" transform="matrix(-0.9615 -0.2748 0.2748 -0.9615 317.0172 240.865)" display="inline" fill="#393A3E" width="13.3" height="13.8"/><polygon display="inline" fill="#393A3E" points="165.5"/><polygon display="inline" fill="#393A3E" points="173"/><polygon display="inline" fill="#393A3E" points="129"/><rect x="82.9" y="46.6" transform="matrix(-0.9614 -0.275 0.275 -0.9614 160.8979 129.5167)" display="inline" fill="#393A3E" width="13.3" height="13.8"/><rect x="64.6" y="41.4" transform="matrix(-0.9615 -0.2748 0.2748 -0.9615 126.5668 114.285)" display="inline" fill="#393A3E" width="13.3" height="13.8"/><path display="inline" fill="#393A3E" d="M251.5 30.8c-20.3-5.8-32.4-2.3-32.9-2.2 -0.9 0.3-1.6 1-1.9 1.9l-9.7 33.9L56.5 21.4c-1.5-0.4-3.1 0.4-3.5 1.9l-7.7 26.9 -8.3-9c-0.8-0.8-2-1.1-3-0.7 -1.1 0.4-1.8 1.4-1.9 2.5l-3.9 66.5L2.3 200.3c-0.4 1.5 0.4 3.1 1.9 3.5l18.3 5.2 -1 17.8c-0.1 1.3 0.8 2.5 2 2.9 0.2 0.1 0.4 0.1 0.6 0.1l88.4 5 74.2 21.2c32.3 9.2 37-7.3 39.5-16.2l44.2-154.2 6.5-22.7C280.4 51.6 271.6 36.5 251.5 30.8zM62.1 35.5c0.4-1.5 2-2.4 3.5-1.9L193.3 70.1c1.5 0.4 2.4 2 1.9 3.5l-28.5 99.3c-0.4 1.5-2 2.4-3.5 1.9 -1.5-0.4-2.4-2-1.9-3.5l6.3-21.9 -12.8-3.7 -3.2 11.1c-0.4 1.5-2 2.4-3.5 1.9 -1.5-0.4-2.4-2-1.9-3.5l3.2-11.1 -15.5-4.4c-1.5-0.4-2.4-2-1.9-3.5l4.6-15.9 -12.8-3.7 -2.2 7.8c-0.4 1.5-2 2.4-3.5 1.9 -1.5-0.4-2.4-2-1.9-3.5l2.2-7.8 -15.5-4.4c-1.5-0.4-2.4-2-1.9-3.5l4.6-16 -12.8-3.7 -1.4 5c-0.4 1.5-2 2.4-3.5 1.9 -1.5-0.4-2.4-2-1.9-3.5l6.8-23.7 -12.8-3.7 -3.7 12.9c-0.4 1.5-2 2.4-3.5 1.9 -1.5-0.4-2.4-2-1.9-3.5l3.7-12.9 -15-4.3c-0.20-0.4 0-0.60 -1.5-0.4-2.4-2-1.9-3.5L62.1 35.5zM22.5 194.1c-0.4 1.5-2 2.4-3.5 1.9 -1.5-0.4-2.4-2-1.9-3.5l3.1-10.7c0.4-1.5 2-2.4 3.5-1.9 1.5 0.4 2.4 2 1.9 3.5L22.5 194.1zM27.3 224.3l10.1-174.2 21.4 23.2 -6.3 5.6c-1.2 1-1.3 2.8-0.2 4 0.4 0.4 0.8 0.7 1.3 0.8 0.9 0.3 1.9 0.1 2.7-0.6l6.4-5.7 7.2 7.9 -6.4 5.7c-1.2 1-1.3 2.8-0.2 4 0.4 0.4 0.8 0.7 1.3 0.8 0.9 0.3 1.9 0.1 2.7-0.6l6.4-5.7 7.2 7.9 -6.4 5.7c-1.2 1-1.3 2.8-0.2 4 0.4 0.4 0.8 0.7 1.3 0.8 0.9 0.3 1.9 0.1 2.7-0.6l6.4-5.8 7.2 7.9 -6.4 5.7c-1.2 1-1.3 2.8-0.2 4 0.4 0.4 0.8 0.7 1.3 0.8 0.9 0.3 1.9 0.1 2.7-0.6l6.5-5.8 7.2 7.9 -6.5 5.8c-1.2 1-1.3 2.8-0.2 4 0.4 0.4 0.8 0.7 1.3 0.8 0.9 0.3 1.9 0.1 2.7-0.6l6.5-5.8 7.2 7.9 -6.5 5.8c-1.2 1-1.3 2.8-0.2 4 0.4 0.4 0.8 0.7 1.3 0.8 0.9 0.3 1.9 0.1 2.7-0.6l6.5-5.8 7.2 7.9 -6.5 5.8c-1.2 1-1.3 2.8-0.2 4 0.4 0.4 0.8 0.7 1.3 0.8 0.9 0.3 1.9 0.1 2.7-0.6l6.6-5.9 7.2 7.9 -6.5 5.8c-1.2 1-1.3 2.8-0.2 4 0.4 0.4 0.8 0.7 1.3 0.8 0.9 0.3 1.9 0.1 2.7-0.6l6.6-5.9 7.2 7.9 -6.6 5.9c-1.2 1-1.3 2.8-0.2 4 0.4 0.4 0.8 0.7 1.3 0.8 0.9 0.3 1.9 0.1 2.7-0.6l6.6-5.9 7.2 7.9 -6.6 5.9c-1.2 1-1.3 2.8-0.2 4 0.4 0.4 0.8 0.7 1.3 0.8 0.9 0.3 1.9 0.1 2.7-0.6l6.7-5.9 7.7 8.3 -3.9 13.7c-0.3 10 2.1 0.7 2.8 0.7 0.7 1.8 1 2.8 0.7 0.10 5.8-1.5 15.7-0.5l22.1 24L27.3 224.3zM224.6 225.5c-3.7-7.4-11.7-14.3-23.9-17.7 -13.1-3.7-22.8-3.6-28.1-3l49-171c3.6-0.6 13.6-1.7 28.3 2.5 18.5 5.3 23.9 17.9 21.8 25.1L224.6 225.5z"/><rect x="95.7" y="70.5" transform="matrix(-0.9615 -0.2749 0.2749 -0.9615 179.603 179.9123)" display="inline" fill="#393A3E" width="13.3" height="13.8"/><polygon display="inline" fill="#393A3E" points="116.1"/><polygon display="inline" fill="#393A3E" points="134.3"/><polygon display="inline" fill="#393A3E" points="141.8"/><rect x="108.6" y="94.4" transform="matrix(-0.9615 -0.2749 0.2749 -0.9615 198.3206 230.3125)" display="inline" fill="#393A3E" width="13.3" height="13.8"/></g><g display="none"><polygon display="inline" fill="#393A3E" points="34.2"/><path display="inline" fill="#393A3E" d="M262 131.7l-29-1.6L226.3 97.7l-0.3-0.5c-20.3-37.5-61.8-62.8-103.1-62.8 -63.1 0-114.5 48.4-114.5 107.9 0 6.6 1.2 13 2.3 19.2 1.2 6.6 2.4 12.8 1.9 18.3l-11 13.1 13.1 17.1 25.2-10.5 140.6-31.4 87.2-9.7 10.5-16.5L262 131.7zM127.3 58.3c-40.1 0-76.4 18-98.4 46.1 16.4-33.8 52.8-57.3 94.8-57.3 30.6 0 61.3 15.3 81.7 39.4C183.2 68.8 155 58.3 127.3 58.3z"/></g><g display="none"><path display="inline" fill="#393A3E" d="M180.9 2.9c-53.2 0-96.2 42.8-96.3 95.7 0 15.2 7.4 35 7.4 35 1.5 4 3.9 10.6 5.3 14.6 0 0 1.6 4.4 1.6 10.4 0 7.1-14 21.1-21.2 21.1 -2.3 0-2.3 0-2.3 0 -2.2-1-6 0.1-8.4 2.6 -2.5 2.4-6.7 7.1-9.5 10.3l-6.4 6.4c-3.3 2.7-16.7 15.7-19.7 18.7l-6.7 6.7c-2.8 2.7-6.1 7.7-7.8 11.6 -2.8-2.4-7.1-2.5-100l-1.3 1.1c-3.2 2.8-3.7 7.7-0.9 11l22 26.3c2.7 3.3 7.6 3.7 10.9 0.9l1.3-1.1c3.2-2.8 3.6-7.7 0.9-11l-0.3-0.3c1.3-0.4 2.1-0.7 2.1-0.7 4-1.5 9.8-5.2 12.8-8.2l14.9-14.9c3-3 7.8-8.2 10.5-11.4l6.4-6.3c3.3-2.7 8-7 10.4-9.4 2.5-2.4 3.6-6.2 2.6-8.3 0 0 0 0 0-2.3 0-7.1 14-21.1 21.2-21.1 6 0 10.4 1.5 10.4 1.5 4 1.4 10.6 3.8 14.6 5.3 0 0 19.9 7.4 35.3 7.4 53.20 96.2-42.8 96.3-95.7C277.1 45.7 234 2.9 180.9 2.9zM230.9 146c-12.6 12.4-29.7 20.1-48.9 20.1 -19.10-36.3-7.7-48.9-20.1 -12.5-12.5-20.2-29.6-20.2-48.6 0-19 7.7-36.1 20.2-48.6 12.6-12.5 29.7-20.1 48.9-20.1 19.1 0 36.3 7.7 48.9 20.1 12.5 12.5 20.2 29.5 20.2 48.6C251.1 116.4 243.5 133.5 230.9 146zM223.6 65.3c-0.5 1.3-1.8 2.1-3.3 2.1 -2 0-4.3-1.3-6.8-3.6 00-8.9-7.3-28-8 -30.7-1-47.4 23.1-47.4 45.8 0 11.5 2.6 20.7 4.2 23.7 3 5.6 2.6 6.3 2.2 6.9l-0.4 0.7 -0.9 0.1c0 00 00 0 -0.7 0-1.5-0.1-5.4-6 -5.7-8.6-8.5-18.1-8.6-29.2 -0.1-13.2 5.3-26 15.4-36.1 11.3-11.4 26.9-17.7 42.6-17.1 20.8 0.8 31.7 10.9 32.2 11.3C223 59.1 224.6 62.8 223.6 65.3z"/></g></svg>